<svg width="23" height="21" viewBox="0 0 23 21" fill="none" xmlns="http://www.w3.org/2000/svg">
<g clip-path="url(#clip0_303_1346)">
<path fill-rule="evenodd" clip-rule="evenodd" d="M4.49599 3.50995C6.17095 1.57179 8.71498 0.043457 12.122 0.043457C15.5797 0.043457 18.0646 1.80685 19.6538 3.82663C21.208 5.80203 21.9985 8.14018 21.9985 9.54346C21.9985 11.0604 21.7314 12.3783 21.3895 13.3869C21.2187 13.8907 21.0258 14.3275 20.8309 14.6797C20.7631 14.8024 20.6891 14.9258 20.6092 15.0437L21.4752 18.5509C21.5594 18.8917 21.4607 19.2522 21.2154 19.5006C20.9701 19.7489 20.6141 19.8488 20.2775 19.7636L16.7345 18.8668C15.8305 19.3873 14.1578 20.0435 12.122 20.0435C6.06104 20.0435 1.99854 14.7574 1.99854 9.54346C1.99854 7.76724 2.84972 5.41492 4.49599 3.50995ZM5.98256 4.82696C4.60414 6.42199 3.97384 8.31967 3.97384 9.54346C3.97384 13.8296 7.31874 18.0435 12.122 18.0435C14.0711 18.0435 15.5686 17.2862 15.9924 16.9797C16.2278 16.8094 16.5252 16.7523 16.806 16.8233L19.1597 17.4191L18.5712 15.036C18.4793 14.6637 18.6059 14.2709 18.8971 14.0252C18.8939 14.028 18.8947 14.0269 18.8994 14.0213C18.9177 13.9993 18.9939 13.9079 19.1075 13.7025C19.2367 13.4688 19.3834 13.1441 19.5212 12.7376C19.7965 11.9253 20.0232 10.8265 20.0232 9.54346C20.0232 8.69674 19.4558 6.78488 18.1087 5.07278C16.7966 3.40506 14.8371 2.04346 12.122 2.04346C9.35617 2.04346 7.3323 3.26513 5.98256 4.82696Z" fill="#262626"/>
</g>
<defs>
<clipPath id="clip0_303_1346">
<rect width="21.5" height="20.5" fill="white" transform="translate(0.998535 0.043457)"/>
</clipPath>
</defs>
</svg>
