<svg width="23" height="22" viewBox="0 0 23 22" fill="none" xmlns="http://www.w3.org/2000/svg">
<path d="M22.6321 19.9589L17.797 15.3459C19.1613 13.6834 19.9016 11.6303 19.8988 9.51682C19.8988 7.63458 19.3153 5.7946 18.222 4.22956C17.1288 2.66453 15.5749 1.44473 13.7569 0.724429C11.9389 0.00412344 9.93837 -0.184341 8.00838 0.182867C6.07838 0.550076 4.30557 1.45647 2.91412 2.78742C1.52267 4.11837 0.575079 5.8141 0.191179 7.66019C-0.19272 9.50627 0.00431087 11.4198 0.757358 13.1588C1.5104 14.8977 2.78564 16.384 4.42182 17.4298C6.05799 18.4755 7.9816 19.0336 9.94941 19.0336C12.159 19.0363 14.3053 18.3282 16.0434 17.0232L20.8661 21.6481C20.9817 21.7596 21.1193 21.8481 21.2708 21.9085C21.4224 21.9689 21.5849 22 21.7491 22C21.9133 22 22.0759 21.9689 22.2274 21.9085C22.379 21.8481 22.5165 21.7596 22.6321 21.6481C22.7487 21.5375 22.8412 21.406 22.9044 21.261C22.9675 21.116 23 20.9605 23 20.8035C23 20.6465 22.9675 20.491 22.9044 20.346C22.8412 20.201 22.7487 20.0695 22.6321 19.9589ZM2.48736 9.51682C2.48736 8.10514 2.925 6.72515 3.74494 5.55138C4.56488 4.3776 5.73029 3.46276 7.0938 2.92253C8.45732 2.3823 9.95769 2.24095 11.4052 2.51636C12.8527 2.79176 14.1823 3.47156 15.2259 4.46977C16.2695 5.46798 16.9802 6.73978 17.2681 8.12434C17.556 9.50891 17.4082 10.944 16.8434 12.2483C16.2787 13.5525 15.3222 14.6672 14.0951 15.4515C12.868 16.2358 11.4253 16.6544 9.94941 16.6544C7.97035 16.6544 6.07235 15.9024 4.67294 14.5639C3.27353 13.2253 2.48736 11.4098 2.48736 9.51682Z" fill="#262626"/>
</svg>
